<!-- Generator: Adobe Illustrator 19.0.0, SVG Export Plug-In . SVG Version: 6.00 Build 0)  -->
<svg enable-background="new 0 0 507.2 507.2" version="1.1" viewBox="0 0 507.2 507.2" xml:space="preserve" xmlns="http://www.w3.org/2000/svg" xmlns:cc="http://creativecommons.org/ns#" xmlns:dc="http://purl.org/dc/elements/1.1/" xmlns:rdf="http://www.w3.org/1999/02/22-rdf-syntax-ns#"><title>checked</title>
<circle cx="253.6" cy="253.6" r="253.6" fill="none" stroke="#00f000" stroke-width="5"/>

<g fill="#00f000">
	<path d="m260 310.4c11.2 11.2 11.2 30.4 0 41.6l-23.2 23.2c-11.2 11.2-30.4 11.2-41.6 0l-101.6-102.4c-11.2-11.2-11.2-30.4 0-41.6l23.2-23.2c11.2-11.2 30.4-11.2 41.6 0z"/>
	<path d="m348.8 133.6c11.2-11.2 30.4-11.2 41.6 0l23.2 23.2c11.2 11.2 11.2 30.4 0 41.6l-176 175.2c-11.2 11.2-30.4 11.2-41.6 0l-23.2-23.2c-11.2-11.2-11.2-30.4 0-41.6z"/>
</g>















<metadata><rdf:RDF><cc:Work rdf:about=""><dc:title>checked</dc:title></cc:Work></rdf:RDF></metadata></svg>
